<svg xmlns="http://www.w3.org/2000/svg" width="549.353" height="534.802" viewBox="0 0 549.353 534.802">
    <defs>
        <style>
            .cls-1,.cls-3{fill:none;stroke:#000;stroke-linecap:round;stroke-linejoin:round}.cls-1{stroke-width:5px}.cls-3{stroke-width:4px}
        </style>
    </defs>
    <g id="Groupe_378" transform="translate(-772.987 -257)">
        <g id="Groupe_370" transform="rotate(3 -10997.3 15693.807)">
            <g id="Groupe_296" transform="translate(387.484)">
                <path id="Tracé_645" d="M592.82 221.24l-63.357 66.135-23.253-18.993z" class="cls-1" transform="translate(-506.211 -221.24)"/>
                <path id="Tracé_646" d="M569.086 221.24l-19.813 97.905-24.482-17.24z" class="cls-1" transform="translate(-482.477 -221.24)"/>
                <path id="Tracé_647" d="M580.161 221.24l-44.3 80.665-19.745 6.377.683-20.906z" class="cls-1" transform="translate(-493.551 -221.24)"/>
                <path id="Ligne_93" d="M64.04 0L0 87.042" class="cls-1" transform="translate(22.569)"/>
            </g>
            <path id="Tracé_648" fill="none" stroke="#000" stroke-dasharray="10" stroke-linecap="round" stroke-linejoin="round" stroke-width="5px" d="M354.438 229.6c-9.018 9.394-15.675 21.278-17.725 34.136s.767 26.657 8.7 36.98c11.886 15.461 33.022 20.97 52.514 20.319 52.428-1.751 98.609-39.811 151.057-40.868 15.552-.314 32.815 3.778 41.453 16.714 3.956 5.926 5.655 13.143 5.855 20.264.754 26.666-19.3 50.884-43.963 61.055-10.4 4.291-23.544 6.074-31.945-1.414-8.914-7.946-7.675-23.168-.144-32.437s19.444-13.728 31.055-16.522a166.452 166.452 0 0 1 51.458-4.127c23.655 1.8 46.789 8.661 70.5 9.355s49.679-6.324 63.12-25.873" transform="translate(-336.067 -210.564)"/>
        </g>
        <g id="Groupe_367" transform="translate(774.987 259)">
            <path id="Tracé_650" d="M320.673 154.824c0 16.307 15.437 29.639 34.922 30.583 4.348 6.358 11.379 11.3 19.82 13.8a27.209 27.209 0 0 1-6.377-15.166c15.015-3.927 25.9-15.521 25.9-29.217 0-.712-.028-1.412-.093-2.114a26.642 26.642 0 0 0-4.694-12.948c-6.377-9.3-18.474-15.586-32.34-15.586-20.511.001-37.138 13.724-37.138 30.648z" class="cls-3" transform="translate(-320.673 -124.177)"/>
            <path id="Tracé_651" d="M494.6 136.371A93.924 93.924 0 0 1 482.276 126a27.227 27.227 0 0 1-6.069-8.118c-.768-1.771-1.178-3.912-.185-5.567a4.762 4.762 0 0 1 2.382-1.9 8.2 8.2 0 0 1 7.851 1.562 17.481 17.481 0 0 1 4.771 6.792 8.688 8.688 0 0 1 1.378-7.416 6.052 6.052 0 0 1 6.994-1.9c2.449 1.141 3.609 4.111 3.44 6.807s-1.4 5.2-2.6 7.616c-2.193 4.4-3.447 8.1-5.639 12.5" class="cls-3" transform="translate(-453.318 -90.36)"/>
        </g>
        <g id="Groupe_366" transform="translate(1193.326 270.093)">
            <path id="Tracé_649" d="M624.447 176.879c0 27.778-26.3 50.491-59.489 52.1-7.406 10.832-19.385 19.257-33.767 23.508a46.33 46.33 0 0 0 10.864-25.833c-25.581-6.689-44.121-26.44-44.121-49.775 0-1.21.049-2.4.16-3.6a45.414 45.414 0 0 1 8-22.06c10.862-15.848 31.473-26.552 55.092-26.552 34.941.001 63.261 23.384 63.261 52.212z" class="cls-1" transform="translate(-497.933 -124.668)"/>
            <g id="Groupe_297" transform="translate(36.947 32.376)">
                <path id="Tracé_652" d="M314.719 91.715a23.3 23.3 0 0 1 4.852-6.087 5.882 5.882 0 0 1 2.679-1.565c1.878-.366 3.658.891 5.1 2.151q1.658 1.45 3.192 3.031" class="cls-1" transform="translate(-314.719 -83.999)"/>
                <path id="Tracé_653" d="M360.548 91.715a23.3 23.3 0 0 0-4.852-6.087 5.882 5.882 0 0 0-2.679-1.565c-1.878-.366-3.658.891-5.1 2.151q-1.658 1.45-3.192 3.031" class="cls-1" transform="translate(-307.164 -83.999)"/>
                <path id="Tracé_654" d="M322.842 98.278a18.026 18.026 0 0 0 10.725 9.037c7.479 2.2 16.337-.464 20.8-6.856" class="cls-1" transform="translate(-312.759 -80.217)"/>
            </g>
        </g>
    </g>
</svg>
